<?xml version="1.0" encoding="UTF-8" standalone="no"?>
<svg
   width="18529.604"
   height="4037.842"
   viewBox="0 0 18529.604 4037.842"
   version="1.1"
   xml:space="preserve"
   style="clip-rule:evenodd;fill-rule:evenodd;stroke-linejoin:round;stroke-miterlimit:1.41421"
   id="svg15"
   sodipodi:docname="rustar-logo.svg"
   inkscape:version="1.3.2 (091e20e, 2023-11-25)"
   xmlns:inkscape="http://www.inkscape.org/namespaces/inkscape"
   xmlns:sodipodi="http://sodipodi.sourceforge.net/DTD/sodipodi-0.dtd"
   xmlns="http://www.w3.org/2000/svg"
   xmlns:svg="http://www.w3.org/2000/svg"><defs
   id="defs15" /><sodipodi:namedview
   id="namedview15"
   pagecolor="#505050"
   bordercolor="#eeeeee"
   borderopacity="1"
   inkscape:showpageshadow="0"
   inkscape:pageopacity="0"
   inkscape:pagecheckerboard="0"
   inkscape:deskcolor="#505050"
   inkscape:zoom="0.045482892"
   inkscape:cx="7728.1805"
   inkscape:cy="1648.9716"
   inkscape:window-width="2200"
   inkscape:window-height="1239"
   inkscape:window-x="227"
   inkscape:window-y="249"
   inkscape:window-maximized="0"
   inkscape:current-layer="svg15"><inkscape:page
     x="0"
     y="0"
     width="18529.604"
     height="4037.842"
     id="page16"
     margin="0 0 0 0"
     bleed="0"
     inkscape:export-filename="rustar-logo.png"
     inkscape:export-xdpi="96"
     inkscape:export-ydpi="96" /></sodipodi:namedview>
    <g
   transform="matrix(4.16667,0,0,4.16667,-8.8780251e-7,-1.9911846e-6)"
   id="g15"
   style="clip-rule:evenodd;fill-rule:evenodd;stroke-linejoin:round;stroke-miterlimit:1.41421">
        <path
   d="m 525.403,293.05 c -131.633,0 -251.228,15.825 -339.77,41.615 v 220.298 c 88.542,25.79 208.137,41.614 339.77,41.614 150.657,0 285.535,-20.729 376.134,-53.402 V 346.457 C 810.938,313.781 676.06,293.05 525.403,293.05 Z"
   style="fill:#8f1e1c;fill-rule:nonzero"
   id="path1" />
        <path
   d="m 907.423,492.442 c -3.857,-10.663 -4.629,-24.154 -1.361,-37.162 5.85,-23.289 22.421,-36.198 37.013,-28.833 3.618,1.827 6.774,4.731 9.387,8.418 0.239,-0.001 0.478,0 0.715,0.016 0,0 44.552,53.106 3.313,116.003 -0.895,3.569 -76.534,91.718 -94.043,94.524 -11.46,1.836 14.891,-89.998 44.976,-152.966 z"
   style="fill:#8f1e1c;fill-rule:nonzero"
   id="path2" />
        <path
   d="m 176.479,482.021 c 5.3,-9.63 7.158,-22.788 4.217,-36.425 -5.266,-24.416 -23.91,-41.11 -41.642,-37.285 -4.398,0.948 -8.325,3.072 -11.666,6.098 -0.282,-0.058 -0.564,-0.113 -0.845,-0.153 0,0 -56.292,41.952 -12.057,113.924 0.805,3.741 83.851,108.838 104.311,115.763 13.391,4.532 -11.247,-92.525 -42.318,-161.922 z"
   style="fill:#8f1e1c;fill-rule:nonzero"
   id="path3" />
        <path
   d="m 97.467,488.066 0.007,0.015 c 0.185,0.145 0.357,0.276 -0.007,-0.015 z"
   style="fill:#e33a25;fill-rule:nonzero"
   id="path4" />
        <path
   d="m 993.119,412.903 c -0.88,-3.064 -1.756,-6.126 -2.662,-9.162 l 30.683,-44.451 c 3.13,-4.522 3.77,-10.398 1.73,-15.555 -2.04,-5.13 -6.49,-8.81 -11.76,-9.71 l -51.886,-8.805 c -2.008,-4.102 -4.116,-8.142 -6.23,-12.15 l 21.797,-49.903 c 2.243,-5.087 1.769,-10.995 -1.203,-15.608 -2.961,-4.636 -7.99,-7.344 -13.349,-7.133 l -52.656,1.913 c -2.727,-3.55 -5.496,-7.068 -8.322,-10.521 l 12.101,-53.49 c 1.225,-5.433 -0.322,-11.118 -4.103,-15.064 -3.762,-3.932 -9.229,-5.559 -14.426,-4.283 l -51.289,12.608 c -3.321,-2.935 -6.699,-5.833 -10.114,-8.673 l 1.848,-54.914 c 0.198,-5.559 -2.393,-10.841 -6.844,-13.925 -4.446,-3.104 -10.093,-3.573 -14.956,-1.266 l -47.847,22.747 c -3.854,-2.21 -7.728,-4.4 -11.644,-6.517 l -8.455,-54.115 c -0.857,-5.482 -4.385,-10.138 -9.326,-12.265 -4.923,-2.138 -10.568,-1.448 -14.891,1.808 l -42.659,32.007 c -4.2,-1.396 -8.419,-2.733 -12.692,-4.011 L 645.578,21.148 c -1.87,-5.229 -6.181,-9.071 -11.438,-10.151 -5.239,-1.071 -10.63,0.743 -14.263,4.802 L 583.97,55.971 c -4.342,-0.5 -8.685,-0.956 -13.043,-1.332 L 543.204,7.926 c -2.81,-4.732 -7.77,-7.612 -13.116,-7.612 -5.334,0 -10.304,2.88 -13.09,7.612 l -27.733,46.713 c -4.358,0.376 -8.722,0.832 -13.056,1.332 l -35.91,-40.172 c -3.636,-4.059 -9.047,-5.873 -14.268,-4.802 -5.255,1.092 -9.573,4.922 -11.433,10.151 l -18.402,51.317 c -4.26,1.278 -8.481,2.627 -12.691,4.011 L 340.861,44.469 c -4.336,-3.266 -9.98,-3.955 -14.916,-1.808 -4.919,2.127 -8.461,6.783 -9.313,12.265 l -8.461,54.115 c -3.914,2.117 -7.789,4.294 -11.653,6.517 L 248.676,92.811 c -4.858,-2.315 -10.529,-1.838 -14.954,1.266 -4.445,3.084 -7.042,8.366 -6.84,13.925 l 1.835,54.914 c -3.405,2.84 -6.774,5.738 -10.112,8.673 l -51.279,-12.608 c -5.211,-1.265 -10.67,0.351 -14.441,4.283 -3.795,3.946 -5.332,9.631 -4.113,15.064 l 12.079,53.49 c -2.802,3.467 -5.575,6.971 -8.293,10.521 l -52.655,-1.913 c -5.315,-0.157 -10.387,2.497 -13.356,7.133 -2.975,4.613 -3.425,10.521 -1.211,15.608 l 21.814,49.903 c -2.119,4.008 -4.224,8.048 -6.249,12.15 l -51.883,8.805 c -5.271,0.888 -9.714,4.566 -11.764,9.71 -2.037,5.157 -1.376,11.033 1.735,15.555 l 30.69,44.451 c -0.237,0.784 -0.455,1.576 -0.69,2.364 l -16.863,17.912 45.341,64.049 c 0,0 435.152,200.732 838.797,3.396 46.108,-8.273 56.855,-78.559 56.855,-78.559 z"
   style="fill:#e43a25;fill-rule:nonzero"
   id="path5" />
        <path
   d="m 608.303,376.759 c 0,0 48.157,-52.729 96.315,0 0,0 37.84,70.312 0,105.463 0,0 -61.917,49.217 -96.315,0 0,0 -41.279,-38.672 0,-105.463 z"
   style="fill:#030404;fill-rule:nonzero"
   id="path6" />
        <path
   d="m 664.057,396.32 c 0,20.533 -12.103,37.179 -27.03,37.179 -14.924,0 -27.027,-16.646 -27.027,-37.179 0,-20.532 12.103,-37.18 27.027,-37.18 14.927,0 27.03,16.648 27.03,37.18 z"
   style="fill:#ffffff;fill-rule:nonzero"
   id="path7" />
        <path
   d="m 393.365,362.361 c 0,0 82.608,-36.576 105.154,45.062 0,0 23.618,95.154 -67.837,100.525 0,0 -116.622,-22.462 -37.317,-145.587 z"
   style="fill:#030404;fill-rule:nonzero"
   id="path8" />
        <path
   d="m 434.855,397.668 c 0,21.173 -12.48,38.346 -27.877,38.346 -15.391,0 -27.874,-17.173 -27.874,-38.346 0,-21.178 12.483,-38.346 27.874,-38.346 15.397,0 27.877,17.168 27.877,38.346 z"
   style="fill:#ffffff;fill-rule:nonzero"
   id="path9" />
        <path
   d="m 111.602,499.216 c 10.967,-12.463 37.611,-27.557 35.57,-46.282 -3.653,-33.527 -31.456,-57.999 -62.099,-54.659 -7.6,0.828 -14.658,3.292 -20.924,7.036 -0.462,-0.107 -0.925,-0.211 -1.388,-0.294 0,0 -103.631,50.873 -44.564,152.657 0.557,5.137 117.848,155.668 150.788,167.131 21.559,7.502 -19.911,-128.64 -57.383,-225.589 z"
   style="fill:#e43a25;fill-rule:nonzero"
   id="path10" />
        <path
   d="m 953.549,494.673 c -12.693,-10.7 -46.162,-20.418 -46.92,-39.238 -1.356,-33.698 22.512,-62.021 53.312,-63.26 7.638,-0.308 14.984,1.083 21.735,3.857 0.442,-0.174 0.884,-0.346 1.329,-0.497 0,0 110.025,34.951 66.695,144.366 0.21,5.163 -93.468,171.416 -124.345,187.635 -20.209,10.615 5.506,-131.431 28.194,-232.863 z"
   style="fill:#e43a25;fill-rule:nonzero"
   id="path11" />
        <path
   d="m 191.142,495.558 c 0,0 -1.383,137.296 133.166,167.932 l 28.054,-56.363 c 0,0 -97.495,9.431 -104.995,-111.569 z"
   style="fill:#e43a25;fill-rule:nonzero"
   id="path12" />
        <path
   d="m 876.362,495.558 c 0,0 1.382,137.296 -133.167,167.932 l -28.054,-56.363 c 0,0 97.495,9.431 104.995,-111.569 z"
   style="fill:#e43a25;fill-rule:nonzero"
   id="path13" />
        <path
   d="m 851.24765,648.12109 c -16.75967,-50.24435 -80.57719,-74.22053 -142.5393,-53.55186 -54.53968,18.19228 -89.42064,64.90698 -85.57499,110.10209 41.88807,2.29809 86.9619,2.74854 131.09571,-0.50424 0,0 -28.7087,39.84355 -69.19667,73.52889 25.03891,8.37977 54.91086,8.6492 84.36739,-1.17654 61.96311,-20.6686 98.6076,-78.15498 81.84786,-128.39834 z"
   style="fill:#e43a25;fill-rule:nonzero"
   id="path14" />
        <path
   d="m 349.42344,707.54668 c 0,0 55.65303,1.82428 130.93657,-3.75423 1.89996,-47.93096 -38.86581,-94.42408 -97.92295,-108.12691 -65.24546,-15.13751 -128.08735,15.47865 -140.36291,68.38437 -12.27556,52.90571 30.66513,108.06581 95.91069,123.2043 28.92229,6.71093 57.36715,4.42214 81.15007,-4.80637 -40.32592,-32.69337 -69.71147,-74.90116 -69.71147,-74.90116 z"
   style="fill:#e43a25;fill-rule:nonzero"
   id="path15" />
    </g><g
   id="g16"
   transform="matrix(12.431139,0,0,12.431139,-104559.64,4439.347)"
   inkscape:label="g16"
   style="clip-rule:evenodd;fill-rule:evenodd;stroke-linejoin:round;stroke-miterlimit:1.41421"><path
     fill="#fdd835"
     d="m 8599.0484,-155.48875 13.46,30.7 a 7.05,7.05 0 0 0 5.82,4.19 l 32.79,2.94 c 3.71,0.54 5.19,5.09 2.5,7.71 l -24.7,20.75 c -2,1.68 -2.91,4.32 -2.36,6.87 l 7.18,33.61 c 0.63,3.69 -3.24,6.51 -6.56,4.76 l -28.62,-16.76 a 7.03,7.03 0 0 0 -7.12,0 l -28.62,16.75 c -3.31,1.74 -7.19,-1.07 -6.56,-4.76 l 7.18,-33.61 c 0.54,-2.55 -0.36,-5.19 -2.36,-6.87 l -24.71,-20.73 c -2.68,-2.61 -1.2,-7.17 2.5,-7.71 l 32.79,-2.94 a 7.05,7.05 0 0 0 5.82,-4.19 l 13.46,-30.7 c 1.67,-3.36 6.45,-3.36 8.11,-0.01"
     id="path1-7" /><path
     fill="#ffff8d"
     d="m 8598.0684,-122.94875 -2.28,-22.62 c -0.09,-1.26 -0.35,-3.42 1.67,-3.42 1.6,0 2.47,3.33 2.47,3.33 l 6.84,18.16 c 2.58,6.91 1.52,9.28 -0.97,10.68 -2.86,1.6 -7.08,0.35 -7.73,-6.13"
     id="path2-9" /><path
     fill="#f4b400"
     d="m 8626.2784,-91.20875 19.62,-15.31 c 0.97,-0.81 2.72,-2.1 1.32,-3.57 -1.11,-1.16 -4.11,0.51 -4.11,0.51 l -17.17,6.71 c -5.12,1.77 -8.52,4.39 -8.82,7.69 -0.39,4.4 3.56,7.79 9.16,3.97"
     id="path3-3" /></g>
<path
   style="font-weight:800;font-size:1515.4px;font-family:'Monaspace Neon Var';-inkscape-font-specification:'Monaspace Neon Var Ultra-Bold';fill:#fdd835;fill-rule:nonzero;stroke:#000000;stroke-width:150;paint-order:stroke fill markers"
   d="m 5239.4035,1764.8209 h 6.8193 v 636.468 h -143.2053 v -695.5686 l 34.0965,34.0965 h -240.9486 v -115.9281 h 328.0841 z m 385.6694,-18.1848 q -102.2895,0 -167.4517,8.3347 -64.4045,7.577 -121.9898,31.8234 -56.8275,23.4887 -121.9897,73.4969 v -125.7782 h 42.4312 q 64.4045,-65.9199 130.3245,-96.9856 65.9199,-31.8234 163.6632,-31.8234 40.9158,0 75.0123,6.8193 z m -728.9075,539.4824 h 625.8603 v 115.9281 h -625.8603 z m 1483.578,-662.2298 h 143.2053 v 778.1579 h -121.232 l -15.154,-131.0821 h -6.8193 z m -366.7268,0 v 518.2668 q 0,60.616 18.9425,96.2279 18.9425,34.8542 50.7659,49.2505 32.5811,14.3963 75.0123,14.3963 75.0123,0 136.386,-37.885 61.3737,-37.885 111.3819,-106.078 v 132.5975 h -35.6119 q -55.3121,59.1006 -119.7166,93.9548 -64.4045,34.8542 -154.5708,34.8542 -70.4661,0 -121.232,-25.0041 -50.0082,-25.0041 -77.2854,-78.0431 -27.2772,-53.039 -27.2772,-135.6283 v -556.9095 z m 1125.9435,-18.1848 q 103.8049,0 175.7864,25.7618 72.7392,25.0041 111.3819,76.5277 39.4004,51.5236 42.4312,129.5667 l -130.3244,9.0924 q -7.577,-66.6776 -59.8583,-100.0164 -51.5236,-34.0965 -149.2669,-34.0965 -91.6817,0 -142.4476,27.2772 -50.0082,27.2772 -50.0082,81.0739 0,30.308 18.1848,51.5236 18.1848,20.4579 57.5852,35.6119 39.4004,15.154 112.1396,31.8234 37.885,8.3347 48.4928,10.6078 112.8973,23.4887 176.5441,49.2505 63.6468,25.7618 95.4702,68.193 32.5811,41.6735 32.5811,108.3511 0,74.2546 -39.4004,128.809 -38.6427,54.5544 -115.9281,84.8624 -76.5277,29.5503 -189.425,29.5503 -110.6242,0 -187.1519,-22.731 -75.77,-23.4887 -121.9897,-76.5277 -46.2197,-53.7967 -63.6468,-143.963 l 131.8398,-16.6694 q 17.4271,64.4045 53.039,96.9856 35.6119,32.5811 80.3162,42.4312 45.462,9.8501 114.4127,9.8501 66.6776,0 110.6242,-15.9117 43.9466,-15.9117 63.6468,-41.6735 20.4579,-26.5195 20.4579,-59.1006 0,-32.5811 -21.9733,-53.7967 -21.9733,-21.2156 -69.7084,-37.1273 -47.7351,-16.6694 -140.9322,-36.3696 l -17.4271,-3.0308 q -98.501,-20.4579 -160.6324,-48.4928 -61.3737,-28.0349 -93.1971,-71.2238 -31.0657,-43.1889 -31.0657,-108.3511 0,-107.5934 84.1047,-167.4517 84.8624,-60.616 255.3449,-60.616 z m 766.7937,-225.7946 h 143.963 v 771.3386 q 0,79.5585 32.5811,117.4435 32.5811,37.885 93.9548,37.885 62.8891,0 95.4702,-38.6427 32.5811,-39.4004 32.5811,-116.6858 v -37.885 h 108.3511 v 28.0349 q 0,93.1971 -26.5195,154.5708 -25.7618,60.616 -81.8316,92.4394 -56.0698,31.0657 -145.4784,31.0657 -128.0513,0 -190.9404,-65.9199 -62.1314,-66.6776 -62.1314,-211.3983 z m 501.5974,243.9794 v 115.9281 h -727.392 v -115.9281 h 266.7104 21.9733 z m 589.4919,-18.1848 q 98.501,0 165.1786,24.2464 66.6776,23.4887 101.5318,78.0431 34.8542,53.7967 34.8542,143.963 v 385.6693 q 0,28.7926 8.3347,43.1889 8.3347,14.3963 28.0349,18.1848 19.7002,3.7885 56.0698,-1.5154 v 104.5626 q -51.5236,15.154 -96.9856,15.154 -50.0082,0 -78.8008,-17.4271 -28.7926,-18.1848 -40.9158,-46.9774 -11.3655,-29.5503 -11.3655,-68.9507 l -7.577,-12.8809 v -410.6734 q 0,-60.616 -21.2156,-93.9548 -21.2156,-33.3388 -58.3429,-45.462 -37.1273,-12.8809 -93.9548,-12.8809 -53.7967,0.7577 -91.6817,12.8809 -37.885,11.3655 -60.616,40.9158 -21.9733,28.7926 -22.731,78.8008 v 33.3388 h -134.1129 v -40.9158 q 0,-105.3203 78.8008,-165.9363 78.8008,-61.3737 245.4948,-61.3737 z m 214.4291,450.8315 q -33.3388,-4.5462 -65.9199,-6.8193 -31.8234,-3.0308 -62.1314,-3.0308 -92.4394,0 -156.0862,15.154 -63.6468,14.3963 -97.7433,46.9774 -33.3388,31.8234 -33.3388,84.1047 0,38.6427 17.4271,65.1622 18.1848,26.5195 51.5236,40.1581 34.0965,13.6386 81.0739,13.6386 62.8891,0 115.1704,-23.4887 53.039,-23.4887 112.8973,-68.9507 l 3.7885,85.6201 h -28.0349 l -13.6386,12.1232 q -38.6427,32.5811 -73.4969,53.7967 -34.0965,21.2156 -80.3162,34.8542 -45.462,14.3963 -100.7741,14.3963 -71.9815,0 -125.0205,-25.0041 -53.039,-25.0041 -81.8316,-71.9815 -28.7926,-46.9774 -28.7926,-112.8973 0,-104.5626 71.2238,-158.3593 71.2238,-53.7967 183.3634,-70.4661 112.1396,-16.6694 272.0143,-15.154 z m 725.8779,-291.7145 h 6.8193 v 636.468 h -143.2053 v -695.5686 l 34.0965,34.0965 H 9593.912 v -115.9281 h 328.0841 z m 385.6689,-18.1848 q -102.289,0 -167.451,8.3347 -64.405,7.577 -121.99,31.8234 -56.8275,23.4887 -121.9897,73.4969 v -125.7782 h 42.4312 q 64.4045,-65.9199 130.3245,-96.9856 65.92,-31.8234 163.663,-31.8234 40.916,0 75.012,6.8193 z m -728.907,539.4824 h 625.86 v 115.9281 h -625.86 z m 951.673,-442.4968 h 697.084 v 124.2628 h -697.084 z m 1269.906,-237.9178 q 98.501,0 165.179,24.2464 66.677,23.4887 101.531,78.0431 34.855,53.7967 34.855,143.963 v 385.6693 q 0,28.7926 8.334,43.1889 8.335,14.3963 28.035,18.1848 19.7,3.7885 56.07,-1.5154 v 104.5626 q -51.524,15.154 -96.986,15.154 -50.008,0 -78.8,-17.4271 -28.793,-18.1848 -40.916,-46.9774 -11.366,-29.5503 -11.366,-68.9507 l -7.577,-12.8809 v -410.6734 q 0,-60.616 -21.215,-93.9548 -21.216,-33.3388 -58.343,-45.462 -37.127,-12.8809 -93.955,-12.8809 -53.797,0.7577 -91.682,12.8809 -37.885,11.3655 -60.616,40.9158 -21.973,28.7926 -22.731,78.8008 v 33.3388 h -134.113 v -40.9158 q 0,-105.3203 78.801,-165.9363 78.801,-61.3737 245.495,-61.3737 z m 214.429,450.8315 q -33.339,-4.5462 -65.92,-6.8193 -31.823,-3.0308 -62.131,-3.0308 -92.44,0 -156.086,15.154 -63.647,14.3963 -97.744,46.9774 -33.338,31.8234 -33.338,84.1047 0,38.6427 17.427,65.1622 18.184,26.5195 51.523,40.1581 34.097,13.6386 81.074,13.6386 62.889,0 115.171,-23.4887 53.039,-23.4887 112.897,-68.9507 l 3.788,85.6201 h -28.035 l -13.638,12.1232 q -38.643,32.5811 -73.497,53.7967 -34.097,21.2156 -80.316,34.8542 -45.462,14.3963 -100.774,14.3963 -71.982,0 -125.021,-25.0041 -53.039,-25.0041 -81.831,-71.9815 -28.793,-46.9774 -28.793,-112.8973 0,-104.5626 71.224,-158.3593 71.224,-53.7967 183.363,-70.4661 112.14,-16.6694 272.014,-15.154 z m 395.521,229.5831 h 695.568 v 115.9281 h -695.568 z m 275.803,115.9281 0.757,-1090.3303 34.097,44.7043 h -310.657 v -113.655 l 400.823,-16.6694 18.943,17.4271 v 1158.5233 z m 939.549,0 v -709.9649 l 34.096,45.462 h -309.899 v -113.655 l 400.823,-17.4271 18.943,18.1848 v 777.4002 z m -275.803,-115.9281 h 695.568 v 115.9281 h -695.568 z m 319.749,-858.4741 q -31.066,0 -55.312,-11.3655 -23.489,-12.1232 -37.127,-34.0965 -13.639,-22.731 -13.639,-52.2813 0,-44.7043 28.793,-70.4661 29.55,-26.5195 77.285,-26.5195 46.978,0 75.77,26.5195 29.55,25.7618 29.55,70.4661 0,45.462 -29.55,71.9815 -28.792,25.7618 -75.77,25.7618 z m 587.977,549.3325 q 0,-112.1396 37.885,-195.4866 38.643,-84.1047 108.351,-129.5667 70.466,-46.2197 163.663,-46.2197 55.313,0 100.775,15.9117 45.462,15.154 80.316,42.4312 35.612,26.5195 62.131,62.8891 h 34.097 v 115.9281 q -51.524,-62.1314 -106.836,-88.6509 -54.554,-27.2772 -114.413,-27.2772 -68.193,0 -117.443,29.5503 -48.493,29.5503 -75.013,85.6201 -25.761,56.0698 -25.761,134.8706 0,75.77 25.004,131.0821 25.004,55.3121 73.497,85.6201 48.492,29.5503 117.443,29.5503 60.616,0 115.171,-26.5195 54.554,-26.5195 108.351,-88.6509 v 115.9281 h -33.339 q -46.22,56.0698 -108.351,88.6509 -61.374,32.5811 -141.69,32.5811 -93.197,0 -162.148,-46.2197 -68.951,-46.2197 -105.32,-128.809 -36.37,-83.347 -36.37,-193.2135 z m 706.177,381.1231 q 0,125.7782 -40.159,203.8213 -39.4,78.8008 -117.443,115.1704 -77.285,36.3696 -193.214,36.3696 -103.047,0 -173.513,-26.5195 -69.708,-25.7618 -108.351,-71.9815 -38.643,-46.2197 -53.797,-108.3511 l 130.325,-29.5503 q 21.215,66.6776 72.739,98.501 51.524,31.8234 132.597,31.8234 98.501,0 153.056,-53.039 54.554,-53.039 54.554,-181.0903 v -612.2216 h 6.82 l 15.154,-137.1437 h 121.232 z m 429.617,43.9466 h -143.205 v -778.1579 h 121.232 l 15.154,131.0821 h 6.819 z m 366.727,0 v -519.0245 q 0,-59.8583 -18.942,-95.4702 -18.943,-35.6119 -51.524,-50.0082 -31.823,-14.3963 -74.255,-14.3963 -75.012,0 -136.386,38.6427 -61.373,37.885 -111.382,106.078 v -132.5975 h 35.612 q 55.312,-59.1006 119.717,-93.9548 64.404,-35.6119 154.571,-35.6119 70.466,0 120.474,25.7618 50.766,25.0041 78.043,78.0431 27.277,53.039 27.277,135.6283 v 556.9095 z m 376.578,-390.2155 q 0,-129.5667 48.493,-220.4907 49.25,-91.6817 138.659,-138.6591 89.408,-46.9774 209.125,-46.9774 110.624,0 188.667,38.6427 78.043,37.885 118.959,115.1704 41.674,77.2854 41.674,190.1827 v 68.193 h -635.711 v -95.4702 h 533.421 l -37.885,32.5811 v -31.0657 q 0,-100.7741 -58.343,-150.7823 -58.343,-50.0082 -155.328,-50.0082 -116.686,0 -181.091,74.2546 -63.646,73.4969 -63.646,214.4291 0,143.2053 63.646,217.4599 63.647,73.4969 181.091,73.4969 75.77,0 129.566,-31.8234 53.797,-31.8234 81.832,-96.9856 l 139.417,23.4887 q -26.52,71.9815 -76.528,121.9897 -49.25,50.0082 -118.959,75.77 -69.708,25.0041 -156.086,25.0041 -117.444,0 -205.337,-46.9774 -87.893,-46.9774 -137.143,-138.6591 -48.493,-91.6817 -48.493,-222.7638 z m 1301.729,-247.0102 h 6.819 v 636.468 h -143.205 v -695.5686 l 34.097,34.0965 h -240.949 v -115.9281 h 328.084 z m 385.669,-18.1848 q -102.289,0 -167.451,8.3347 -64.405,7.577 -121.99,31.8234 -56.827,23.4887 -121.99,73.4969 v -125.7782 h 42.432 q 64.404,-65.9199 130.324,-96.9856 65.92,-31.8234 163.663,-31.8234 40.916,0 75.012,6.8193 z m -728.907,539.4824 h 625.86 v 115.9281 h -625.86 z"
   id="text16"
   aria-label="rustar-aligner" /></svg>
