<?xml version="1.0" encoding="UTF-8" standalone="no"?>
<svg
   width="4430.8496"
   height="3943.613"
   viewBox="0 0 4430.8497 3943.613"
   version="1.1"
   xml:space="preserve"
   style="clip-rule:evenodd;fill-rule:evenodd;stroke-linejoin:round;stroke-miterlimit:1.41421"
   id="svg15"
   sodipodi:docname="rustar-icon.svg"
   inkscape:version="1.3.2 (091e20e, 2023-11-25)"
   xmlns:inkscape="http://www.inkscape.org/namespaces/inkscape"
   xmlns:sodipodi="http://sodipodi.sourceforge.net/DTD/sodipodi-0.dtd"
   xmlns="http://www.w3.org/2000/svg"
   xmlns:svg="http://www.w3.org/2000/svg"><defs
   id="defs15" /><sodipodi:namedview
   id="namedview15"
   pagecolor="#505050"
   bordercolor="#eeeeee"
   borderopacity="1"
   inkscape:showpageshadow="0"
   inkscape:pageopacity="0"
   inkscape:pagecheckerboard="0"
   inkscape:deskcolor="#505050"
   inkscape:zoom="0.11949196"
   inkscape:cx="1359.9242"
   inkscape:cy="2058.716"
   inkscape:window-width="2200"
   inkscape:window-height="1239"
   inkscape:window-x="227"
   inkscape:window-y="249"
   inkscape:window-maximized="0"
   inkscape:current-layer="svg15"><inkscape:page
     x="0"
     y="0"
     width="4430.8496"
     height="3943.613"
     id="page16"
     margin="0 0 0"
     bleed="0" /></sodipodi:namedview>
    <g
   transform="matrix(4.16667,0,0,4.16667,-8.8780251e-7,-1.9911846e-6)"
   id="g15"
   style="clip-rule:evenodd;fill-rule:evenodd;stroke-linejoin:round;stroke-miterlimit:1.41421">
        <path
   d="m 525.403,293.05 c -131.633,0 -251.228,15.825 -339.77,41.615 v 220.298 c 88.542,25.79 208.137,41.614 339.77,41.614 150.657,0 285.535,-20.729 376.134,-53.402 V 346.457 C 810.938,313.781 676.06,293.05 525.403,293.05 Z"
   style="fill:#8f1e1c;fill-rule:nonzero"
   id="path1" />
        <path
   d="m 907.423,492.442 c -3.857,-10.663 -4.629,-24.154 -1.361,-37.162 5.85,-23.289 22.421,-36.198 37.013,-28.833 3.618,1.827 6.774,4.731 9.387,8.418 0.239,-0.001 0.478,0 0.715,0.016 0,0 44.552,53.106 3.313,116.003 -0.895,3.569 -76.534,91.718 -94.043,94.524 -11.46,1.836 14.891,-89.998 44.976,-152.966 z"
   style="fill:#8f1e1c;fill-rule:nonzero"
   id="path2" />
        <path
   d="m 176.479,482.021 c 5.3,-9.63 7.158,-22.788 4.217,-36.425 -5.266,-24.416 -23.91,-41.11 -41.642,-37.285 -4.398,0.948 -8.325,3.072 -11.666,6.098 -0.282,-0.058 -0.564,-0.113 -0.845,-0.153 0,0 -56.292,41.952 -12.057,113.924 0.805,3.741 83.851,108.838 104.311,115.763 13.391,4.532 -11.247,-92.525 -42.318,-161.922 z"
   style="fill:#8f1e1c;fill-rule:nonzero"
   id="path3" />
        <path
   d="m 97.467,488.066 0.007,0.015 c 0.185,0.145 0.357,0.276 -0.007,-0.015 z"
   style="fill:#e33a25;fill-rule:nonzero"
   id="path4" />
        <path
   d="m 993.119,412.903 c -0.88,-3.064 -1.756,-6.126 -2.662,-9.162 l 30.683,-44.451 c 3.13,-4.522 3.77,-10.398 1.73,-15.555 -2.04,-5.13 -6.49,-8.81 -11.76,-9.71 l -51.886,-8.805 c -2.008,-4.102 -4.116,-8.142 -6.23,-12.15 l 21.797,-49.903 c 2.243,-5.087 1.769,-10.995 -1.203,-15.608 -2.961,-4.636 -7.99,-7.344 -13.349,-7.133 l -52.656,1.913 c -2.727,-3.55 -5.496,-7.068 -8.322,-10.521 l 12.101,-53.49 c 1.225,-5.433 -0.322,-11.118 -4.103,-15.064 -3.762,-3.932 -9.229,-5.559 -14.426,-4.283 l -51.289,12.608 c -3.321,-2.935 -6.699,-5.833 -10.114,-8.673 l 1.848,-54.914 c 0.198,-5.559 -2.393,-10.841 -6.844,-13.925 -4.446,-3.104 -10.093,-3.573 -14.956,-1.266 l -47.847,22.747 c -3.854,-2.21 -7.728,-4.4 -11.644,-6.517 l -8.455,-54.115 c -0.857,-5.482 -4.385,-10.138 -9.326,-12.265 -4.923,-2.138 -10.568,-1.448 -14.891,1.808 l -42.659,32.007 c -4.2,-1.396 -8.419,-2.733 -12.692,-4.011 L 645.578,21.148 c -1.87,-5.229 -6.181,-9.071 -11.438,-10.151 -5.239,-1.071 -10.63,0.743 -14.263,4.802 L 583.97,55.971 c -4.342,-0.5 -8.685,-0.956 -13.043,-1.332 L 543.204,7.926 c -2.81,-4.732 -7.77,-7.612 -13.116,-7.612 -5.334,0 -10.304,2.88 -13.09,7.612 l -27.733,46.713 c -4.358,0.376 -8.722,0.832 -13.056,1.332 l -35.91,-40.172 c -3.636,-4.059 -9.047,-5.873 -14.268,-4.802 -5.255,1.092 -9.573,4.922 -11.433,10.151 l -18.402,51.317 c -4.26,1.278 -8.481,2.627 -12.691,4.011 L 340.861,44.469 c -4.336,-3.266 -9.98,-3.955 -14.916,-1.808 -4.919,2.127 -8.461,6.783 -9.313,12.265 l -8.461,54.115 c -3.914,2.117 -7.789,4.294 -11.653,6.517 L 248.676,92.811 c -4.858,-2.315 -10.529,-1.838 -14.954,1.266 -4.445,3.084 -7.042,8.366 -6.84,13.925 l 1.835,54.914 c -3.405,2.84 -6.774,5.738 -10.112,8.673 l -51.279,-12.608 c -5.211,-1.265 -10.67,0.351 -14.441,4.283 -3.795,3.946 -5.332,9.631 -4.113,15.064 l 12.079,53.49 c -2.802,3.467 -5.575,6.971 -8.293,10.521 l -52.655,-1.913 c -5.315,-0.157 -10.387,2.497 -13.356,7.133 -2.975,4.613 -3.425,10.521 -1.211,15.608 l 21.814,49.903 c -2.119,4.008 -4.224,8.048 -6.249,12.15 l -51.883,8.805 c -5.271,0.888 -9.714,4.566 -11.764,9.71 -2.037,5.157 -1.376,11.033 1.735,15.555 l 30.69,44.451 c -0.237,0.784 -0.455,1.576 -0.69,2.364 l -16.863,17.912 45.341,64.049 c 0,0 435.152,200.732 838.797,3.396 46.108,-8.273 56.855,-78.559 56.855,-78.559 z"
   style="fill:#e43a25;fill-rule:nonzero"
   id="path5" />
        <path
   d="m 608.303,376.759 c 0,0 48.157,-52.729 96.315,0 0,0 37.84,70.312 0,105.463 0,0 -61.917,49.217 -96.315,0 0,0 -41.279,-38.672 0,-105.463 z"
   style="fill:#030404;fill-rule:nonzero"
   id="path6" />
        <path
   d="m 664.057,396.32 c 0,20.533 -12.103,37.179 -27.03,37.179 -14.924,0 -27.027,-16.646 -27.027,-37.179 0,-20.532 12.103,-37.18 27.027,-37.18 14.927,0 27.03,16.648 27.03,37.18 z"
   style="fill:#ffffff;fill-rule:nonzero"
   id="path7" />
        <path
   d="m 393.365,362.361 c 0,0 82.608,-36.576 105.154,45.062 0,0 23.618,95.154 -67.837,100.525 0,0 -116.622,-22.462 -37.317,-145.587 z"
   style="fill:#030404;fill-rule:nonzero"
   id="path8" />
        <path
   d="m 434.855,397.668 c 0,21.173 -12.48,38.346 -27.877,38.346 -15.391,0 -27.874,-17.173 -27.874,-38.346 0,-21.178 12.483,-38.346 27.874,-38.346 15.397,0 27.877,17.168 27.877,38.346 z"
   style="fill:#ffffff;fill-rule:nonzero"
   id="path9" />
        <path
   d="m 111.602,499.216 c 10.967,-12.463 37.611,-27.557 35.57,-46.282 -3.653,-33.527 -31.456,-57.999 -62.099,-54.659 -7.6,0.828 -14.658,3.292 -20.924,7.036 -0.462,-0.107 -0.925,-0.211 -1.388,-0.294 0,0 -103.631,50.873 -44.564,152.657 0.557,5.137 117.848,155.668 150.788,167.131 21.559,7.502 -19.911,-128.64 -57.383,-225.589 z"
   style="fill:#e43a25;fill-rule:nonzero"
   id="path10" />
        <path
   d="m 953.549,494.673 c -12.693,-10.7 -46.162,-20.418 -46.92,-39.238 -1.356,-33.698 22.512,-62.021 53.312,-63.26 7.638,-0.308 14.984,1.083 21.735,3.857 0.442,-0.174 0.884,-0.346 1.329,-0.497 0,0 110.025,34.951 66.695,144.366 0.21,5.163 -93.468,171.416 -124.345,187.635 -20.209,10.615 5.506,-131.431 28.194,-232.863 z"
   style="fill:#e43a25;fill-rule:nonzero"
   id="path11" />
        <path
   d="m 191.142,495.558 c 0,0 -1.383,137.296 133.166,167.932 l 28.054,-56.363 c 0,0 -97.495,9.431 -104.995,-111.569 z"
   style="fill:#e43a25;fill-rule:nonzero"
   id="path12" />
        <path
   d="m 876.362,495.558 c 0,0 1.382,137.296 -133.167,167.932 l -28.054,-56.363 c 0,0 97.495,9.431 104.995,-111.569 z"
   style="fill:#e43a25;fill-rule:nonzero"
   id="path13" />
        <path
   d="m 851.24765,648.12109 c -16.75967,-50.24435 -80.57719,-74.22053 -142.5393,-53.55186 -54.53968,18.19228 -89.42064,64.90698 -85.57499,110.10209 41.88807,2.29809 86.9619,2.74854 131.09571,-0.50424 0,0 -28.7087,39.84355 -69.19667,73.52889 25.03891,8.37977 54.91086,8.6492 84.36739,-1.17654 61.96311,-20.6686 98.6076,-78.15498 81.84786,-128.39834 z"
   style="fill:#e43a25;fill-rule:nonzero"
   id="path14" />
        <path
   d="m 349.42344,707.54668 c 0,0 55.65303,1.82428 130.93657,-3.75423 1.89996,-47.93096 -38.86581,-94.42408 -97.92295,-108.12691 -65.24546,-15.13751 -128.08735,15.47865 -140.36291,68.38437 -12.27556,52.90571 30.66513,108.06581 95.91069,123.2043 28.92229,6.71093 57.36715,4.42214 81.15007,-4.80637 -40.32592,-32.69337 -69.71147,-74.90116 -69.71147,-74.90116 z"
   style="fill:#e43a25;fill-rule:nonzero"
   id="path15" />
    </g><g
   id="g16"
   transform="matrix(12.431139,0,0,12.431139,-104559.64,4439.347)"
   inkscape:label="g16"
   style="clip-rule:evenodd;fill-rule:evenodd;stroke-linejoin:round;stroke-miterlimit:1.41421"><path
     fill="#fdd835"
     d="m 8599.0484,-155.48875 13.46,30.7 a 7.05,7.05 0 0 0 5.82,4.19 l 32.79,2.94 c 3.71,0.54 5.19,5.09 2.5,7.71 l -24.7,20.75 c -2,1.68 -2.91,4.32 -2.36,6.87 l 7.18,33.61 c 0.63,3.69 -3.24,6.51 -6.56,4.76 l -28.62,-16.76 a 7.03,7.03 0 0 0 -7.12,0 l -28.62,16.75 c -3.31,1.74 -7.19,-1.07 -6.56,-4.76 l 7.18,-33.61 c 0.54,-2.55 -0.36,-5.19 -2.36,-6.87 l -24.71,-20.73 c -2.68,-2.61 -1.2,-7.17 2.5,-7.71 l 32.79,-2.94 a 7.05,7.05 0 0 0 5.82,-4.19 l 13.46,-30.7 c 1.67,-3.36 6.45,-3.36 8.11,-0.01"
     id="path1-7" /><path
     fill="#ffff8d"
     d="m 8598.0684,-122.94875 -2.28,-22.62 c -0.09,-1.26 -0.35,-3.42 1.67,-3.42 1.6,0 2.47,3.33 2.47,3.33 l 6.84,18.16 c 2.58,6.91 1.52,9.28 -0.97,10.68 -2.86,1.6 -7.08,0.35 -7.73,-6.13"
     id="path2-9" /><path
     fill="#f4b400"
     d="m 8626.2784,-91.20875 19.62,-15.31 c 0.97,-0.81 2.72,-2.1 1.32,-3.57 -1.11,-1.16 -4.11,0.51 -4.11,0.51 l -17.17,6.71 c -5.12,1.77 -8.52,4.39 -8.82,7.69 -0.39,4.4 3.56,7.79 9.16,3.97"
     id="path3-3" /></g>
</svg>
